# xmcd CD database file
#
# Track frame offsets:
#	150
#	21710
#	53485
#	74068
#	89793
#	109255
#	130345
#	156008
#	171898
#	190803
#
# Disc length: 2837 seconds
#
# Revision: 0
# Processed by: cddbd v1.4PL0 Copyright (c) Steve Scherf et al.
# Submitted via: CDex 1.50Beta7
#
DISCID=930b130a
DTITLE=Jay McShann -  The Last Of The Blue Devils
DYEAR=1900
DGENRE=Jazz
TTITLE0=Confessin' The Blues
TTITLE1=Tain't Nobody's Business If I Do
TTITLE2=Hootie Blues
TTITLE3=Blue Devil Jump
TTITLE4=My Chile
TTITLE5=Jumpin' At The Woodside
TTITLE6=Just For You
TTITLE7=Hot Biscuits
TTITLE8=Fore Day Rider
TTITLE9=Kansas City
EXTD=
EXTT0=
EXTT1=
EXTT2=
EXTT3=
EXTT4=
EXTT5=
EXTT6=
EXTT7=
EXTT8=
EXTT9=
PLAYORDER=
